<svg xmlns="http://www.w3.org/2000/svg" xmlns:xlink="http://www.w3.org/1999/xlink" width="500" zoomAndPan="magnify" viewBox="0 0 375 374.999991" height="500" preserveAspectRatio="xMidYMid meet" version="1.0"><defs><g/><clipPath id="c91ec79a0d"><path d="M 35.292969 83.542969 L 243.710938 83.542969 L 243.710938 290.539062 L 35.292969 290.539062 Z M 35.292969 83.542969 " clip-rule="nonzero"/></clipPath><clipPath id="f092c0552e"><path d="M 38.285156 83.542969 L 240.714844 83.542969 C 242.367188 83.542969 243.707031 84.886719 243.707031 86.546875 L 243.707031 287.535156 C 243.707031 289.195312 242.367188 290.539062 240.714844 290.539062 L 38.285156 290.539062 C 36.632812 290.539062 35.292969 289.195312 35.292969 287.535156 L 35.292969 86.546875 C 35.292969 84.886719 36.632812 83.542969 38.285156 83.542969 " clip-rule="nonzero"/></clipPath><clipPath id="9c0ec52744"><path d="M 0 119.230469 L 375 119.230469 L 375 254.425781 L 0 254.425781 Z M 0 119.230469 " clip-rule="nonzero"/></clipPath></defs><g clip-path="url(#c91ec79a0d)"><g clip-path="url(#f092c0552e)"><path stroke-linecap="butt" transform="matrix(1.414043, 0, 0, 1.420842, 35.294519, 83.541045)" fill="none" stroke-linejoin="miter" d="M 2.114955 0.00135401 L 145.271651 0.00135401 C 146.440175 0.00135401 147.387702 0.947096 147.387702 2.115528 L 147.387702 143.572736 C 147.387702 144.741167 146.440175 145.68691 145.271651 145.68691 L 2.114955 145.68691 C 0.946431 145.68691 -0.0010962 144.741167 -0.0010962 143.572736 L -0.0010962 2.115528 C -0.0010962 0.947096 0.946431 0.00135401 2.114955 0.00135401 " stroke="#ffbd59" stroke-width="3.17393" stroke-opacity="1" stroke-miterlimit="4"/></g></g><g clip-path="url(#9c0ec52744)"><path fill="#ffffff" d="M -22.152344 119.230469 L 552.722656 119.230469 L 552.722656 255.46875 L -22.152344 255.46875 Z M -22.152344 119.230469 " fill-opacity="1" fill-rule="nonzero"/></g><path fill="#ffffff" d="M -0.527344 117.269531 L 376.25 117.269531 L 376.25 235.042969 L -0.527344 235.042969 L -0.527344 117.269531 " fill-opacity="1" fill-rule="nonzero"/><g fill="#04153b" fill-opacity="1"><g transform="translate(-0.281411, 203.824388)"><g><path d="M 33.757812 1.21875 C 51.902344 1.21875 64.753906 -11.0625 64.753906 -28.472656 C 64.753906 -45.878906 51.902344 -58.164062 33.757812 -58.164062 C 15.617188 -58.164062 2.765625 -45.878906 2.765625 -28.472656 C 2.765625 -11.0625 15.617188 1.21875 33.757812 1.21875 Z M 19.441406 -28.472656 C 19.441406 -37.011719 25.378906 -42.953125 33.757812 -42.953125 C 42.21875 -42.953125 48.078125 -37.011719 48.078125 -28.472656 C 48.078125 -19.929688 42.21875 -13.992188 33.757812 -13.992188 C 25.378906 -13.992188 19.441406 -19.929688 19.441406 -28.472656 Z M 19.441406 -28.472656 "/></g></g></g><g fill="#04153b" fill-opacity="1"><g transform="translate(67.805295, 203.824388)"><g><path d="M 30.503906 1.21875 C 45.878906 1.21875 55.398438 -8.136719 55.398438 -23.429688 L 55.398438 -56.945312 L 39.046875 -56.945312 L 39.046875 -24.484375 C 39.046875 -17.734375 36.199219 -14.15625 30.503906 -14.15625 C 24.8125 -14.15625 21.964844 -17.734375 21.964844 -24.484375 L 21.964844 -56.945312 L 5.53125 -56.945312 L 5.53125 -23.429688 C 5.53125 -8.136719 15.128906 1.21875 30.503906 1.21875 Z M 30.503906 1.21875 "/></g></g></g><g fill="#04153b" fill-opacity="1"><g transform="translate(129.302971, 203.824388)"><g><path d="M 19.605469 0 L 35.957031 0 L 35.957031 -41.730469 L 53.285156 -41.730469 L 53.285156 -56.945312 L 2.277344 -56.945312 L 2.277344 -41.730469 L 19.605469 -41.730469 Z M 19.605469 0 "/></g></g></g><g fill="#04153b" fill-opacity="1"><g transform="translate(185.350474, 203.824388)"><g><path d="M 6.019531 0 L 45.71875 0 L 45.71875 -15.210938 L 22.453125 -15.210938 L 22.453125 -56.945312 L 6.019531 -56.945312 Z M 6.019531 0 "/></g></g></g><g fill="#04153b" fill-opacity="1"><g transform="translate(233.588735, 203.824388)"><g><path d="M 6.019531 0 L 22.453125 0 L 22.453125 -56.945312 L 6.019531 -56.945312 Z M 6.019531 0 "/></g></g></g><g fill="#04153b" fill-opacity="1"><g transform="translate(262.547973, 203.824388)"><g><path d="M 6.019531 0 L 22.289062 0 L 22.289062 -29.042969 L 43.929688 0 L 57.269531 0 L 57.269531 -56.945312 L 41.082031 -56.945312 L 41.082031 -28.066406 L 19.441406 -56.945312 L 6.019531 -56.945312 Z M 6.019531 0 "/></g></g></g><g fill="#04153b" fill-opacity="1"><g transform="translate(326.404679, 203.824388)"><g><path d="M 6.019531 0 L 45.960938 0 L 45.960938 -13.421875 L 22.289062 -13.421875 L 22.289062 -22.207031 L 42.871094 -22.207031 L 42.871094 -35.386719 L 22.289062 -35.386719 L 22.289062 -43.683594 L 45.066406 -43.683594 L 45.066406 -56.945312 L 6.019531 -56.945312 Z M 6.019531 0 "/></g></g></g><g fill="#c1c8d1" fill-opacity="1"><g transform="translate(192.89134, 233.993864)"><g><path d="M 7.296875 -15.96875 C 9.347656 -15.96875 11.195312 -15.421875 12.84375 -14.328125 L 11.734375 -11.984375 C 10.117188 -12.960938 8.570312 -13.453125 7.09375 -13.453125 C 6.289062 -13.453125 5.65625 -13.304688 5.1875 -13.015625 C 4.726562 -12.734375 4.5 -12.328125 4.5 -11.796875 C 4.5 -11.265625 4.707031 -10.8125 5.125 -10.4375 C 5.550781 -10.070312 6.082031 -9.800781 6.71875 -9.625 C 7.351562 -9.457031 8.039062 -9.238281 8.78125 -8.96875 C 9.519531 -8.707031 10.207031 -8.429688 10.84375 -8.140625 C 11.476562 -7.847656 12.003906 -7.382812 12.421875 -6.75 C 12.835938 -6.125 13.046875 -5.367188 13.046875 -4.484375 C 13.046875 -3.097656 12.488281 -1.988281 11.375 -1.15625 C 10.269531 -0.320312 8.832031 0.09375 7.0625 0.09375 C 5.851562 0.09375 4.679688 -0.128906 3.546875 -0.578125 C 2.421875 -1.035156 1.4375 -1.648438 0.59375 -2.421875 L 1.75 -4.734375 C 2.539062 -3.992188 3.414062 -3.421875 4.375 -3.015625 C 5.332031 -2.617188 6.242188 -2.421875 7.109375 -2.421875 C 8.046875 -2.421875 8.773438 -2.585938 9.296875 -2.921875 C 9.816406 -3.265625 10.078125 -3.738281 10.078125 -4.34375 C 10.078125 -4.882812 9.863281 -5.335938 9.4375 -5.703125 C 9.019531 -6.078125 8.492188 -6.351562 7.859375 -6.53125 C 7.222656 -6.707031 6.535156 -6.921875 5.796875 -7.171875 C 5.054688 -7.421875 4.367188 -7.679688 3.734375 -7.953125 C 3.097656 -8.234375 2.566406 -8.679688 2.140625 -9.296875 C 1.722656 -9.921875 1.515625 -10.671875 1.515625 -11.546875 C 1.515625 -12.890625 2.039062 -13.960938 3.09375 -14.765625 C 4.15625 -15.566406 5.554688 -15.96875 7.296875 -15.96875 Z M 7.296875 -15.96875 "/></g></g></g><g fill="#c1c8d1" fill-opacity="1"><g transform="translate(212.88521, 233.993864)"><g><path d="M 3.1875 -13.625 C 4.800781 -15.15625 6.789062 -15.921875 9.15625 -15.921875 C 11.53125 -15.921875 13.523438 -15.15625 15.140625 -13.625 C 16.753906 -12.09375 17.5625 -10.191406 17.5625 -7.921875 C 17.5625 -5.660156 16.753906 -3.753906 15.140625 -2.203125 C 13.523438 -0.660156 11.53125 0.109375 9.15625 0.109375 C 6.789062 0.109375 4.800781 -0.660156 3.1875 -2.203125 C 1.570312 -3.753906 0.765625 -5.660156 0.765625 -7.921875 C 0.765625 -10.191406 1.570312 -12.09375 3.1875 -13.625 Z M 9.1875 -13.515625 C 7.625 -13.515625 6.28125 -12.972656 5.15625 -11.890625 C 4.039062 -10.816406 3.484375 -9.492188 3.484375 -7.921875 C 3.484375 -6.347656 4.046875 -5.015625 5.171875 -3.921875 C 6.296875 -2.828125 7.632812 -2.28125 9.1875 -2.28125 C 10.75 -2.28125 12.078125 -2.828125 13.171875 -3.921875 C 14.273438 -5.015625 14.828125 -6.347656 14.828125 -7.921875 C 14.828125 -9.492188 14.273438 -10.816406 13.171875 -11.890625 C 12.078125 -12.972656 10.75 -13.515625 9.1875 -13.515625 Z M 9.1875 -13.515625 "/></g></g></g><g fill="#c1c8d1" fill-opacity="1"><g transform="translate(237.135511, 233.993864)"><g><path d="M 4.75 -2.421875 L 11.609375 -2.421875 L 11.609375 0 L 2.078125 0 L 2.078125 -15.84375 L 4.75 -15.84375 Z M 4.75 -2.421875 "/></g></g></g><g fill="#c1c8d1" fill-opacity="1"><g transform="translate(255.137027, 233.993864)"><g><path d="M 15.546875 -15.84375 L 15.546875 -6.5625 C 15.546875 -4.5 14.9375 -2.867188 13.71875 -1.671875 C 12.5 -0.484375 10.816406 0.109375 8.671875 0.109375 C 6.523438 0.109375 4.835938 -0.484375 3.609375 -1.671875 C 2.378906 -2.867188 1.765625 -4.5 1.765625 -6.5625 L 1.765625 -15.84375 L 4.4375 -15.84375 L 4.4375 -6.5625 C 4.4375 -5.238281 4.816406 -4.191406 5.578125 -3.421875 C 6.335938 -2.660156 7.375 -2.28125 8.6875 -2.28125 C 9.988281 -2.28125 11.007812 -2.65625 11.75 -3.40625 C 12.5 -4.164062 12.875 -5.21875 12.875 -6.5625 L 12.875 -15.84375 Z M 15.546875 -15.84375 "/></g></g></g><g fill="#c1c8d1" fill-opacity="1"><g transform="translate(278.345871, 233.993864)"><g><path d="M 12.90625 -13.453125 L 7.875 -13.453125 L 7.875 0 L 5.203125 0 L 5.203125 -13.453125 L 0.203125 -13.453125 L 0.203125 -15.84375 L 12.90625 -15.84375 Z M 12.90625 -13.453125 "/></g></g></g><g fill="#c1c8d1" fill-opacity="1"><g transform="translate(297.366215, 233.993864)"><g><path d="M 4.75 0 L 2.078125 0 L 2.078125 -15.84375 L 4.75 -15.84375 Z M 4.75 0 "/></g></g></g><g fill="#c1c8d1" fill-opacity="1"><g transform="translate(310.115103, 233.993864)"><g><path d="M 3.1875 -13.625 C 4.800781 -15.15625 6.789062 -15.921875 9.15625 -15.921875 C 11.53125 -15.921875 13.523438 -15.15625 15.140625 -13.625 C 16.753906 -12.09375 17.5625 -10.191406 17.5625 -7.921875 C 17.5625 -5.660156 16.753906 -3.753906 15.140625 -2.203125 C 13.523438 -0.660156 11.53125 0.109375 9.15625 0.109375 C 6.789062 0.109375 4.800781 -0.660156 3.1875 -2.203125 C 1.570312 -3.753906 0.765625 -5.660156 0.765625 -7.921875 C 0.765625 -10.191406 1.570312 -12.09375 3.1875 -13.625 Z M 9.1875 -13.515625 C 7.625 -13.515625 6.28125 -12.972656 5.15625 -11.890625 C 4.039062 -10.816406 3.484375 -9.492188 3.484375 -7.921875 C 3.484375 -6.347656 4.046875 -5.015625 5.171875 -3.921875 C 6.296875 -2.828125 7.632812 -2.28125 9.1875 -2.28125 C 10.75 -2.28125 12.078125 -2.828125 13.171875 -3.921875 C 14.273438 -5.015625 14.828125 -6.347656 14.828125 -7.921875 C 14.828125 -9.492188 14.273438 -10.816406 13.171875 -11.890625 C 12.078125 -12.972656 10.75 -13.515625 9.1875 -13.515625 Z M 9.1875 -13.515625 "/></g></g></g><g fill="#c1c8d1" fill-opacity="1"><g transform="translate(334.365404, 233.993864)"><g><path d="M 15.828125 0 L 13.203125 0 L 4.75 -11.359375 L 4.75 0 L 2.078125 0 L 2.078125 -15.84375 L 4.703125 -15.84375 L 13.203125 -4.453125 L 13.203125 -15.84375 L 15.828125 -15.84375 Z M 15.828125 0 "/></g></g></g><g fill="#c1c8d1" fill-opacity="1"><g transform="translate(358.208186, 233.993864)"><g><path d="M 7.296875 -15.96875 C 9.347656 -15.96875 11.195312 -15.421875 12.84375 -14.328125 L 11.734375 -11.984375 C 10.117188 -12.960938 8.570312 -13.453125 7.09375 -13.453125 C 6.289062 -13.453125 5.65625 -13.304688 5.1875 -13.015625 C 4.726562 -12.734375 4.5 -12.328125 4.5 -11.796875 C 4.5 -11.265625 4.707031 -10.8125 5.125 -10.4375 C 5.550781 -10.070312 6.082031 -9.800781 6.71875 -9.625 C 7.351562 -9.457031 8.039062 -9.238281 8.78125 -8.96875 C 9.519531 -8.707031 10.207031 -8.429688 10.84375 -8.140625 C 11.476562 -7.847656 12.003906 -7.382812 12.421875 -6.75 C 12.835938 -6.125 13.046875 -5.367188 13.046875 -4.484375 C 13.046875 -3.097656 12.488281 -1.988281 11.375 -1.15625 C 10.269531 -0.320312 8.832031 0.09375 7.0625 0.09375 C 5.851562 0.09375 4.679688 -0.128906 3.546875 -0.578125 C 2.421875 -1.035156 1.4375 -1.648438 0.59375 -2.421875 L 1.75 -4.734375 C 2.539062 -3.992188 3.414062 -3.421875 4.375 -3.015625 C 5.332031 -2.617188 6.242188 -2.421875 7.109375 -2.421875 C 8.046875 -2.421875 8.773438 -2.585938 9.296875 -2.921875 C 9.816406 -3.265625 10.078125 -3.738281 10.078125 -4.34375 C 10.078125 -4.882812 9.863281 -5.335938 9.4375 -5.703125 C 9.019531 -6.078125 8.492188 -6.351562 7.859375 -6.53125 C 7.222656 -6.707031 6.535156 -6.921875 5.796875 -7.171875 C 5.054688 -7.421875 4.367188 -7.679688 3.734375 -7.953125 C 3.097656 -8.234375 2.566406 -8.679688 2.140625 -9.296875 C 1.722656 -9.921875 1.515625 -10.671875 1.515625 -11.546875 C 1.515625 -12.890625 2.039062 -13.960938 3.09375 -14.765625 C 4.15625 -15.566406 5.554688 -15.96875 7.296875 -15.96875 Z M 7.296875 -15.96875 "/></g></g></g></svg>