<svg xmlns="http://www.w3.org/2000/svg" xmlns:xlink="http://www.w3.org/1999/xlink" width="500" zoomAndPan="magnify" viewBox="0 0 375 374.999991" height="500" preserveAspectRatio="xMidYMid meet" version="1.0"><defs><g/><clipPath id="07755a154b"><path d="M 59.984375 123.261719 L 170.230469 123.261719 L 170.230469 232.761719 L 59.984375 232.761719 Z M 59.984375 123.261719 " clip-rule="nonzero"/></clipPath><clipPath id="82a82a6e3d"><path d="M 62.972656 123.261719 L 167.238281 123.261719 C 168.03125 123.261719 168.792969 123.578125 169.355469 124.140625 C 169.914062 124.707031 170.230469 125.46875 170.230469 126.269531 L 170.230469 229.753906 C 170.230469 230.550781 169.914062 231.316406 169.355469 231.882812 C 168.792969 232.445312 168.03125 232.761719 167.238281 232.761719 L 62.972656 232.761719 C 62.179688 232.761719 61.417969 232.445312 60.859375 231.882812 C 60.296875 231.316406 59.984375 230.550781 59.984375 229.753906 L 59.984375 126.269531 C 59.984375 125.46875 60.296875 124.707031 60.859375 124.140625 C 61.417969 123.578125 62.179688 123.261719 62.972656 123.261719 " clip-rule="nonzero"/></clipPath><clipPath id="81dda713da"><path d="M 29.59375 142.140625 L 334 142.140625 L 334 213.65625 L 29.59375 213.65625 Z M 29.59375 142.140625 " clip-rule="nonzero"/></clipPath></defs><rect x="-37.5" width="450" fill="#ffffff" y="-37.499999" height="449.999989" fill-opacity="1"/><rect x="-37.5" width="450" fill="#ffffff" y="-37.499999" height="449.999989" fill-opacity="1"/><rect x="-37.5" width="450" fill="#ffffff" y="-37.499999" height="449.999989" fill-opacity="1"/><g clip-path="url(#07755a154b)"><g clip-path="url(#82a82a6e3d)"><path stroke-linecap="butt" transform="matrix(0.748012, 0, 0, 0.751609, 59.982562, 123.26151)" fill="none" stroke-linejoin="miter" d="M 3.997386 0.000277331 L 143.387642 0.000277331 C 144.447743 0.000277331 145.466067 0.421249 146.21806 1.169644 C 146.964831 1.923236 147.387827 2.936687 147.387827 4.00211 L 147.387827 141.685955 C 147.387827 142.746181 146.964831 143.76483 146.21806 144.518422 C 145.466067 145.266816 144.447743 145.687788 143.387642 145.687788 L 3.997386 145.687788 C 2.937285 145.687788 1.918961 145.266816 1.17219 144.518422 C 0.420197 143.76483 0.00242354 142.746181 0.00242354 141.685955 L 0.00242354 4.00211 C 0.00242354 2.936687 0.420197 1.923236 1.17219 1.169644 C 1.918961 0.421249 2.937285 0.000277331 3.997386 0.000277331 " stroke="#ffbd59" stroke-width="6" stroke-opacity="1" stroke-miterlimit="4"/></g></g><g clip-path="url(#81dda713da)"><path fill="#ffffff" d="M 29.59375 142.140625 L 333.695312 142.140625 L 333.695312 214.210938 L 29.59375 214.210938 Z M 29.59375 142.140625 " fill-opacity="1" fill-rule="nonzero"/></g><path fill="#ffffff" d="M 41.035156 141.101562 L 240.34375 141.101562 L 240.34375 203.402344 L 41.035156 203.402344 L 41.035156 141.101562 " fill-opacity="1" fill-rule="nonzero"/><g fill="#04153b" fill-opacity="1"><g transform="translate(41.163306, 186.890003)"><g><path d="M 17.859375 0.644531 C 27.453125 0.644531 34.253906 -5.851562 34.253906 -15.0625 C 34.253906 -24.269531 27.453125 -30.769531 17.859375 -30.769531 C 8.261719 -30.769531 1.464844 -24.269531 1.464844 -15.0625 C 1.464844 -5.851562 8.261719 0.644531 17.859375 0.644531 Z M 10.285156 -15.0625 C 10.285156 -19.578125 13.425781 -22.722656 17.859375 -22.722656 C 22.332031 -22.722656 25.433594 -19.578125 25.433594 -15.0625 C 25.433594 -10.542969 22.332031 -7.402344 17.859375 -7.402344 C 13.425781 -7.402344 10.285156 -10.542969 10.285156 -15.0625 Z M 10.285156 -15.0625 "/></g></g></g><g fill="#04153b" fill-opacity="1"><g transform="translate(77.180385, 186.890003)"><g><path d="M 16.136719 0.644531 C 24.269531 0.644531 29.304688 -4.304688 29.304688 -12.394531 L 29.304688 -30.121094 L 20.65625 -30.121094 L 20.65625 -12.953125 C 20.65625 -9.382812 19.148438 -7.488281 16.136719 -7.488281 C 13.125 -7.488281 11.617188 -9.382812 11.617188 -12.953125 L 11.617188 -30.121094 L 2.925781 -30.121094 L 2.925781 -12.394531 C 2.925781 -4.304688 8.003906 0.644531 16.136719 0.644531 Z M 16.136719 0.644531 "/></g></g></g><g fill="#04153b" fill-opacity="1"><g transform="translate(109.711944, 186.890003)"><g><path d="M 10.371094 0 L 19.019531 0 L 19.019531 -22.074219 L 28.1875 -22.074219 L 28.1875 -30.121094 L 1.203125 -30.121094 L 1.203125 -22.074219 L 10.371094 -22.074219 Z M 10.371094 0 "/></g></g></g><g fill="#04153b" fill-opacity="1"><g transform="translate(139.360424, 186.890003)"><g><path d="M 3.183594 0 L 24.183594 0 L 24.183594 -8.046875 L 11.878906 -8.046875 L 11.878906 -30.121094 L 3.183594 -30.121094 Z M 3.183594 0 "/></g></g></g><g fill="#04153b" fill-opacity="1"><g transform="translate(164.877906, 186.890003)"><g><path d="M 3.183594 0 L 11.878906 0 L 11.878906 -30.121094 L 3.183594 -30.121094 Z M 3.183594 0 "/></g></g></g><g fill="#04153b" fill-opacity="1"><g transform="translate(180.197007, 186.890003)"><g><path d="M 3.183594 0 L 11.789062 0 L 11.789062 -15.363281 L 23.238281 0 L 30.292969 0 L 30.292969 -30.121094 L 21.730469 -30.121094 L 21.730469 -14.847656 L 10.285156 -30.121094 L 3.183594 -30.121094 Z M 3.183594 0 "/></g></g></g><g fill="#04153b" fill-opacity="1"><g transform="translate(213.976465, 186.890003)"><g><path d="M 3.183594 0 L 24.3125 0 L 24.3125 -7.101562 L 11.789062 -7.101562 L 11.789062 -11.746094 L 22.679688 -11.746094 L 22.679688 -18.71875 L 11.789062 -18.71875 L 11.789062 -23.109375 L 23.839844 -23.109375 L 23.839844 -30.121094 L 3.183594 -30.121094 Z M 3.183594 0 "/></g></g></g><g fill="#c1c8d1" fill-opacity="1"><g transform="translate(143.349443, 202.849323)"><g><path d="M 3.859375 -8.453125 C 4.941406 -8.453125 5.921875 -8.164062 6.796875 -7.59375 L 6.203125 -6.34375 C 5.347656 -6.863281 4.53125 -7.125 3.75 -7.125 C 3.320312 -7.125 2.988281 -7.046875 2.75 -6.890625 C 2.507812 -6.734375 2.390625 -6.515625 2.390625 -6.234375 C 2.390625 -5.960938 2.5 -5.726562 2.71875 -5.53125 C 2.945312 -5.332031 3.226562 -5.1875 3.5625 -5.09375 C 3.894531 -5.007812 4.253906 -4.894531 4.640625 -4.75 C 5.035156 -4.613281 5.398438 -4.46875 5.734375 -4.3125 C 6.078125 -4.15625 6.359375 -3.910156 6.578125 -3.578125 C 6.796875 -3.242188 6.90625 -2.84375 6.90625 -2.375 C 6.90625 -1.632812 6.609375 -1.046875 6.015625 -0.609375 C 5.429688 -0.171875 4.671875 0.046875 3.734375 0.046875 C 3.097656 0.046875 2.476562 -0.0703125 1.875 -0.3125 C 1.28125 -0.550781 0.757812 -0.875 0.3125 -1.28125 L 0.921875 -2.5 C 1.347656 -2.113281 1.8125 -1.8125 2.3125 -1.59375 C 2.820312 -1.382812 3.304688 -1.28125 3.765625 -1.28125 C 4.253906 -1.28125 4.632812 -1.367188 4.90625 -1.546875 C 5.1875 -1.734375 5.328125 -1.984375 5.328125 -2.296875 C 5.328125 -2.585938 5.210938 -2.828125 4.984375 -3.015625 C 4.765625 -3.210938 4.488281 -3.359375 4.15625 -3.453125 C 3.820312 -3.546875 3.457031 -3.65625 3.0625 -3.78125 C 2.675781 -3.914062 2.3125 -4.054688 1.96875 -4.203125 C 1.632812 -4.359375 1.351562 -4.597656 1.125 -4.921875 C 0.90625 -5.253906 0.796875 -5.648438 0.796875 -6.109375 C 0.796875 -6.816406 1.078125 -7.382812 1.640625 -7.8125 C 2.203125 -8.238281 2.941406 -8.453125 3.859375 -8.453125 Z M 3.859375 -8.453125 "/></g></g></g><g fill="#c1c8d1" fill-opacity="1"><g transform="translate(153.925969, 202.849323)"><g><path d="M 1.6875 -7.203125 C 2.539062 -8.015625 3.59375 -8.421875 4.84375 -8.421875 C 6.101562 -8.421875 7.160156 -8.015625 8.015625 -7.203125 C 8.867188 -6.390625 9.296875 -5.382812 9.296875 -4.1875 C 9.296875 -2.988281 8.867188 -1.976562 8.015625 -1.15625 C 7.160156 -0.34375 6.101562 0.0625 4.84375 0.0625 C 3.59375 0.0625 2.539062 -0.34375 1.6875 -1.15625 C 0.832031 -1.976562 0.40625 -2.988281 0.40625 -4.1875 C 0.40625 -5.382812 0.832031 -6.390625 1.6875 -7.203125 Z M 4.859375 -7.15625 C 4.035156 -7.15625 3.328125 -6.867188 2.734375 -6.296875 C 2.140625 -5.722656 1.84375 -5.019531 1.84375 -4.1875 C 1.84375 -3.363281 2.140625 -2.660156 2.734375 -2.078125 C 3.328125 -1.492188 4.035156 -1.203125 4.859375 -1.203125 C 5.679688 -1.203125 6.382812 -1.492188 6.96875 -2.078125 C 7.550781 -2.660156 7.84375 -3.363281 7.84375 -4.1875 C 7.84375 -5.019531 7.550781 -5.722656 6.96875 -6.296875 C 6.382812 -6.867188 5.679688 -7.15625 4.859375 -7.15625 Z M 4.859375 -7.15625 "/></g></g></g><g fill="#c1c8d1" fill-opacity="1"><g transform="translate(166.754097, 202.849323)"><g><path d="M 2.515625 -1.28125 L 6.140625 -1.28125 L 6.140625 0 L 1.109375 0 L 1.109375 -8.390625 L 2.515625 -8.390625 Z M 2.515625 -1.28125 "/></g></g></g><g fill="#c1c8d1" fill-opacity="1"><g transform="translate(176.276691, 202.849323)"><g><path d="M 8.234375 -8.390625 L 8.234375 -3.46875 C 8.234375 -2.375 7.910156 -1.507812 7.265625 -0.875 C 6.617188 -0.25 5.726562 0.0625 4.59375 0.0625 C 3.457031 0.0625 2.5625 -0.25 1.90625 -0.875 C 1.257812 -1.507812 0.9375 -2.375 0.9375 -3.46875 L 0.9375 -8.390625 L 2.34375 -8.390625 L 2.34375 -3.46875 C 2.34375 -2.769531 2.546875 -2.21875 2.953125 -1.8125 C 3.359375 -1.40625 3.910156 -1.203125 4.609375 -1.203125 C 5.285156 -1.203125 5.820312 -1.398438 6.21875 -1.796875 C 6.613281 -2.203125 6.8125 -2.757812 6.8125 -3.46875 L 6.8125 -8.390625 Z M 8.234375 -8.390625 "/></g></g></g><g fill="#c1c8d1" fill-opacity="1"><g transform="translate(188.5539, 202.849323)"><g><path d="M 6.828125 -7.125 L 4.171875 -7.125 L 4.171875 0 L 2.75 0 L 2.75 -7.125 L 0.109375 -7.125 L 0.109375 -8.390625 L 6.828125 -8.390625 Z M 6.828125 -7.125 "/></g></g></g><g fill="#c1c8d1" fill-opacity="1"><g transform="translate(198.615442, 202.849323)"><g><path d="M 2.515625 0 L 1.109375 0 L 1.109375 -8.390625 L 2.515625 -8.390625 Z M 2.515625 0 "/></g></g></g><g fill="#c1c8d1" fill-opacity="1"><g transform="translate(205.359456, 202.849323)"><g><path d="M 1.6875 -7.203125 C 2.539062 -8.015625 3.59375 -8.421875 4.84375 -8.421875 C 6.101562 -8.421875 7.160156 -8.015625 8.015625 -7.203125 C 8.867188 -6.390625 9.296875 -5.382812 9.296875 -4.1875 C 9.296875 -2.988281 8.867188 -1.976562 8.015625 -1.15625 C 7.160156 -0.34375 6.101562 0.0625 4.84375 0.0625 C 3.59375 0.0625 2.539062 -0.34375 1.6875 -1.15625 C 0.832031 -1.976562 0.40625 -2.988281 0.40625 -4.1875 C 0.40625 -5.382812 0.832031 -6.390625 1.6875 -7.203125 Z M 4.859375 -7.15625 C 4.035156 -7.15625 3.328125 -6.867188 2.734375 -6.296875 C 2.140625 -5.722656 1.84375 -5.019531 1.84375 -4.1875 C 1.84375 -3.363281 2.140625 -2.660156 2.734375 -2.078125 C 3.328125 -1.492188 4.035156 -1.203125 4.859375 -1.203125 C 5.679688 -1.203125 6.382812 -1.492188 6.96875 -2.078125 C 7.550781 -2.660156 7.84375 -3.363281 7.84375 -4.1875 C 7.84375 -5.019531 7.550781 -5.722656 6.96875 -6.296875 C 6.382812 -6.867188 5.679688 -7.15625 4.859375 -7.15625 Z M 4.859375 -7.15625 "/></g></g></g><g fill="#c1c8d1" fill-opacity="1"><g transform="translate(218.187584, 202.849323)"><g><path d="M 8.375 0 L 6.984375 0 L 2.515625 -6.015625 L 2.515625 0 L 1.109375 0 L 1.109375 -8.390625 L 2.5 -8.390625 L 6.984375 -2.359375 L 6.984375 -8.390625 L 8.375 -8.390625 Z M 8.375 0 "/></g></g></g><g fill="#c1c8d1" fill-opacity="1"><g transform="translate(230.80014, 202.849323)"><g><path d="M 3.859375 -8.453125 C 4.941406 -8.453125 5.921875 -8.164062 6.796875 -7.59375 L 6.203125 -6.34375 C 5.347656 -6.863281 4.53125 -7.125 3.75 -7.125 C 3.320312 -7.125 2.988281 -7.046875 2.75 -6.890625 C 2.507812 -6.734375 2.390625 -6.515625 2.390625 -6.234375 C 2.390625 -5.960938 2.5 -5.726562 2.71875 -5.53125 C 2.945312 -5.332031 3.226562 -5.1875 3.5625 -5.09375 C 3.894531 -5.007812 4.253906 -4.894531 4.640625 -4.75 C 5.035156 -4.613281 5.398438 -4.46875 5.734375 -4.3125 C 6.078125 -4.15625 6.359375 -3.910156 6.578125 -3.578125 C 6.796875 -3.242188 6.90625 -2.84375 6.90625 -2.375 C 6.90625 -1.632812 6.609375 -1.046875 6.015625 -0.609375 C 5.429688 -0.171875 4.671875 0.046875 3.734375 0.046875 C 3.097656 0.046875 2.476562 -0.0703125 1.875 -0.3125 C 1.28125 -0.550781 0.757812 -0.875 0.3125 -1.28125 L 0.921875 -2.5 C 1.347656 -2.113281 1.8125 -1.8125 2.3125 -1.59375 C 2.820312 -1.382812 3.304688 -1.28125 3.765625 -1.28125 C 4.253906 -1.28125 4.632812 -1.367188 4.90625 -1.546875 C 5.1875 -1.734375 5.328125 -1.984375 5.328125 -2.296875 C 5.328125 -2.585938 5.210938 -2.828125 4.984375 -3.015625 C 4.765625 -3.210938 4.488281 -3.359375 4.15625 -3.453125 C 3.820312 -3.546875 3.457031 -3.65625 3.0625 -3.78125 C 2.675781 -3.914062 2.3125 -4.054688 1.96875 -4.203125 C 1.632812 -4.359375 1.351562 -4.597656 1.125 -4.921875 C 0.90625 -5.253906 0.796875 -5.648438 0.796875 -6.109375 C 0.796875 -6.816406 1.078125 -7.382812 1.640625 -7.8125 C 2.203125 -8.238281 2.941406 -8.453125 3.859375 -8.453125 Z M 3.859375 -8.453125 "/></g></g></g></svg>