<svg xmlns="http://www.w3.org/2000/svg" xmlns:xlink="http://www.w3.org/1999/xlink" width="500" zoomAndPan="magnify" viewBox="0 0 375 374.999991" height="500" preserveAspectRatio="xMidYMid meet" version="1.0"><defs><g/><clipPath id="2d11303f71"><path d="M 0 77.792969 L 375 77.792969 L 375 265.878906 L 0 265.878906 Z M 0 77.792969 " clip-rule="nonzero"/></clipPath><clipPath id="71d83c7272"><path d="M 3 77.792969 L 372 77.792969 C 373.65625 77.792969 375 79.136719 375 80.792969 L 375 262.089844 C 375 263.746094 373.65625 265.089844 372 265.089844 L 3 265.089844 C 1.34375 265.089844 0 263.746094 0 262.089844 L 0 80.792969 C 0 79.136719 1.34375 77.792969 3 77.792969 " clip-rule="nonzero"/></clipPath><clipPath id="78d249f202"><path d="M 0.0078125 77.792969 L 375 77.792969 L 375 265.292969 L 0.0078125 265.292969 Z M 0.0078125 77.792969 " clip-rule="nonzero"/></clipPath><clipPath id="81c73f5a6f"><path d="M 3.007812 77.792969 L 371.992188 77.792969 C 373.648438 77.792969 374.992188 79.136719 374.992188 80.796875 L 374.992188 262.289062 C 374.992188 263.949219 373.648438 265.292969 371.992188 265.292969 L 3.007812 265.292969 C 1.351562 265.292969 0.0078125 263.949219 0.0078125 262.289062 L 0.0078125 80.796875 C 0.0078125 79.136719 1.351562 77.792969 3.007812 77.792969 " clip-rule="nonzero"/></clipPath><clipPath id="5820f93ef3"><path d="M 18.675781 96.585938 L 209.175781 96.585938 L 209.175781 246.585938 L 18.675781 246.585938 Z M 18.675781 96.585938 " clip-rule="nonzero"/></clipPath><clipPath id="b2b2b82a3f"><path d="M 21.679688 96.585938 L 206.171875 96.585938 C 207.832031 96.585938 209.175781 97.933594 209.175781 99.59375 L 209.175781 243.578125 C 209.175781 245.238281 207.832031 246.585938 206.171875 246.585938 L 21.679688 246.585938 C 20.019531 246.585938 18.675781 245.238281 18.675781 243.578125 L 18.675781 99.59375 C 18.675781 97.933594 20.019531 96.585938 21.679688 96.585938 " clip-rule="nonzero"/></clipPath><clipPath id="02ff85958f"><path d="M 29.03125 115.191406 L 362.792969 115.191406 L 362.792969 227.691406 L 29.03125 227.691406 Z M 29.03125 115.191406 " clip-rule="nonzero"/></clipPath></defs><g clip-path="url(#2d11303f71)"><g clip-path="url(#71d83c7272)"><path fill="#fffcf2" d="M 0 77.792969 L 374.414062 77.792969 L 374.414062 265.878906 L 0 265.878906 Z M 0 77.792969 " fill-opacity="1" fill-rule="nonzero"/></g></g><g clip-path="url(#78d249f202)"><g clip-path="url(#81c73f5a6f)"><path stroke-linecap="butt" transform="matrix(0.75, 0, 0, 0.750845, 0.007518, 77.79234)" fill="none" stroke-linejoin="miter" d="M 4.000393 0.000837801 L 495.979624 0.000837801 C 498.187957 0.000837801 499.979624 1.790489 499.979624 4.001541 L 499.979624 245.718908 C 499.979624 247.92996 498.187957 249.719611 495.979624 249.719611 L 4.000393 249.719611 C 1.79206 249.719611 0.000392662 247.92996 0.000392662 245.718908 L 0.000392662 4.001541 C 0.000392662 1.790489 1.79206 0.000837801 4.000393 0.000837801 " stroke="#fffcf2" stroke-width="14" stroke-opacity="1" stroke-miterlimit="4"/></g></g><g clip-path="url(#5820f93ef3)"><g clip-path="url(#b2b2b82a3f)"><path stroke-linecap="butt" transform="matrix(0.750785, 0, 0, 0.751468, 18.676258, 96.586978)" fill="none" stroke-linejoin="miter" d="M 4.000386 -0.00138523 L 249.732725 -0.00138523 C 251.943952 -0.00138523 253.733745 1.791981 253.733745 4.001199 L 253.733745 195.605435 C 253.733745 197.814654 251.943952 199.608019 249.732725 199.608019 L 4.000386 199.608019 C 1.789159 199.608019 -0.000634354 197.814654 -0.000634354 195.605435 L -0.000634354 4.001199 C -0.000634354 1.791981 1.789159 -0.00138523 4.000386 -0.00138523 " stroke="#ffbd59" stroke-width="12" stroke-opacity="1" stroke-miterlimit="4"/></g></g><g clip-path="url(#02ff85958f)"><path fill="#fffcf2" d="M 29.03125 115.191406 L 363.015625 115.191406 L 363.015625 227.691406 L 29.03125 227.691406 Z M 29.03125 115.191406 " fill-opacity="1" fill-rule="nonzero"/></g><g fill="#04153b" fill-opacity="1"><g transform="translate(29.893109, 189.22807)"><g><path d="M 29.785156 1.078125 C 45.792969 1.078125 57.132812 -9.761719 57.132812 -25.121094 C 57.132812 -40.480469 45.792969 -51.320312 29.785156 -51.320312 C 13.78125 -51.320312 2.441406 -40.480469 2.441406 -25.121094 C 2.441406 -9.761719 13.78125 1.078125 29.785156 1.078125 Z M 17.15625 -25.121094 C 17.15625 -32.65625 22.394531 -37.898438 29.785156 -37.898438 C 37.25 -37.898438 42.417969 -32.65625 42.417969 -25.121094 C 42.417969 -17.585938 37.25 -12.34375 29.785156 -12.34375 C 22.394531 -12.34375 17.15625 -17.585938 17.15625 -25.121094 Z M 17.15625 -25.121094 "/></g></g></g><g fill="#04153b" fill-opacity="1"><g transform="translate(89.967397, 189.22807)"><g><path d="M 26.914062 1.078125 C 40.480469 1.078125 48.878906 -7.175781 48.878906 -20.671875 L 48.878906 -50.242188 L 34.453125 -50.242188 L 34.453125 -21.605469 C 34.453125 -15.648438 31.941406 -12.488281 26.914062 -12.488281 C 21.890625 -12.488281 19.378906 -15.648438 19.378906 -21.605469 L 19.378906 -50.242188 L 4.878906 -50.242188 L 4.878906 -20.671875 C 4.878906 -7.175781 13.351562 1.078125 26.914062 1.078125 Z M 26.914062 1.078125 "/></g></g></g><g fill="#04153b" fill-opacity="1"><g transform="translate(144.228049, 189.22807)"><g><path d="M 17.296875 0 L 31.726562 0 L 31.726562 -36.820312 L 47.011719 -36.820312 L 47.011719 -50.242188 L 2.007812 -50.242188 L 2.007812 -36.820312 L 17.296875 -36.820312 Z M 17.296875 0 "/></g></g></g><g fill="#04153b" fill-opacity="1"><g transform="translate(193.679903, 189.22807)"><g><path d="M 5.3125 0 L 40.335938 0 L 40.335938 -13.421875 L 19.808594 -13.421875 L 19.808594 -50.242188 L 5.3125 -50.242188 Z M 5.3125 0 "/></g></g></g><g fill="#04153b" fill-opacity="1"><g transform="translate(236.241503, 189.22807)"><g><path d="M 5.3125 0 L 19.808594 0 L 19.808594 -50.242188 L 5.3125 -50.242188 Z M 5.3125 0 "/></g></g></g><g fill="#04153b" fill-opacity="1"><g transform="translate(261.79283, 189.22807)"><g><path d="M 5.3125 0 L 19.667969 0 L 19.667969 -25.625 L 38.757812 0 L 50.53125 0 L 50.53125 -50.242188 L 36.246094 -50.242188 L 36.246094 -24.761719 L 17.15625 -50.242188 L 5.3125 -50.242188 Z M 5.3125 0 "/></g></g></g><g fill="#04153b" fill-opacity="1"><g transform="translate(318.134902, 189.22807)"><g><path d="M 5.3125 0 L 40.554688 0 L 40.554688 -11.84375 L 19.667969 -11.84375 L 19.667969 -19.59375 L 37.824219 -19.59375 L 37.824219 -31.222656 L 19.667969 -31.222656 L 19.667969 -38.542969 L 39.761719 -38.542969 L 39.761719 -50.242188 L 5.3125 -50.242188 Z M 5.3125 0 "/></g></g></g><g fill="#c1c8d1" fill-opacity="1"><g transform="translate(201.505363, 209.880104)"><g><path d="M 6.4375 -14.09375 C 8.25 -14.09375 9.882812 -13.613281 11.34375 -12.65625 L 10.359375 -10.578125 C 8.929688 -11.441406 7.566406 -11.875 6.265625 -11.875 C 5.554688 -11.875 5 -11.75 4.59375 -11.5 C 4.1875 -11.25 3.984375 -10.890625 3.984375 -10.421875 C 3.984375 -9.953125 4.164062 -9.550781 4.53125 -9.21875 C 4.90625 -8.894531 5.375 -8.65625 5.9375 -8.5 C 6.5 -8.351562 7.101562 -8.160156 7.75 -7.921875 C 8.40625 -7.691406 9.015625 -7.445312 9.578125 -7.1875 C 10.140625 -6.925781 10.601562 -6.519531 10.96875 -5.96875 C 11.332031 -5.414062 11.515625 -4.742188 11.515625 -3.953125 C 11.515625 -2.734375 11.023438 -1.753906 10.046875 -1.015625 C 9.066406 -0.285156 7.796875 0.078125 6.234375 0.078125 C 5.171875 0.078125 4.140625 -0.117188 3.140625 -0.515625 C 2.140625 -0.921875 1.265625 -1.460938 0.515625 -2.140625 L 1.546875 -4.1875 C 2.242188 -3.53125 3.015625 -3.023438 3.859375 -2.671875 C 4.710938 -2.316406 5.519531 -2.140625 6.28125 -2.140625 C 7.101562 -2.140625 7.742188 -2.289062 8.203125 -2.59375 C 8.671875 -2.894531 8.90625 -3.3125 8.90625 -3.84375 C 8.90625 -4.320312 8.71875 -4.722656 8.34375 -5.046875 C 7.96875 -5.378906 7.5 -5.617188 6.9375 -5.765625 C 6.375 -5.921875 5.765625 -6.109375 5.109375 -6.328125 C 4.460938 -6.546875 3.859375 -6.78125 3.296875 -7.03125 C 2.734375 -7.28125 2.265625 -7.675781 1.890625 -8.21875 C 1.523438 -8.769531 1.34375 -9.429688 1.34375 -10.203125 C 1.34375 -11.390625 1.804688 -12.332031 2.734375 -13.03125 C 3.671875 -13.738281 4.90625 -14.09375 6.4375 -14.09375 Z M 6.4375 -14.09375 "/></g></g></g><g fill="#c1c8d1" fill-opacity="1"><g transform="translate(218.820424, 209.880104)"><g><path d="M 2.8125 -12.03125 C 4.238281 -13.382812 6 -14.0625 8.09375 -14.0625 C 10.1875 -14.0625 11.945312 -13.382812 13.375 -12.03125 C 14.800781 -10.675781 15.515625 -9 15.515625 -7 C 15.515625 -5 14.800781 -3.316406 13.375 -1.953125 C 11.945312 -0.585938 10.1875 0.09375 8.09375 0.09375 C 6 0.09375 4.238281 -0.585938 2.8125 -1.953125 C 1.394531 -3.316406 0.6875 -5 0.6875 -7 C 0.6875 -9 1.394531 -10.675781 2.8125 -12.03125 Z M 8.125 -11.9375 C 6.738281 -11.9375 5.550781 -11.457031 4.5625 -10.5 C 3.570312 -9.550781 3.078125 -8.382812 3.078125 -7 C 3.078125 -5.613281 3.570312 -4.4375 4.5625 -3.46875 C 5.5625 -2.5 6.75 -2.015625 8.125 -2.015625 C 9.5 -2.015625 10.671875 -2.5 11.640625 -3.46875 C 12.609375 -4.4375 13.09375 -5.613281 13.09375 -7 C 13.09375 -8.382812 12.609375 -9.550781 11.640625 -10.5 C 10.671875 -11.457031 9.5 -11.9375 8.125 -11.9375 Z M 8.125 -11.9375 "/></g></g></g><g fill="#c1c8d1" fill-opacity="1"><g transform="translate(239.894, 209.880104)"><g><path d="M 4.203125 -2.140625 L 10.265625 -2.140625 L 10.265625 0 L 1.84375 0 L 1.84375 -14 L 4.203125 -14 Z M 4.203125 -2.140625 "/></g></g></g><g fill="#c1c8d1" fill-opacity="1"><g transform="translate(255.449764, 209.880104)"><g><path d="M 13.734375 -14 L 13.734375 -5.796875 C 13.734375 -3.972656 13.191406 -2.535156 12.109375 -1.484375 C 11.035156 -0.429688 9.550781 0.09375 7.65625 0.09375 C 5.757812 0.09375 4.269531 -0.429688 3.1875 -1.484375 C 2.101562 -2.535156 1.5625 -3.972656 1.5625 -5.796875 L 1.5625 -14 L 3.921875 -14 L 3.921875 -5.796875 C 3.921875 -4.628906 4.253906 -3.707031 4.921875 -3.03125 C 5.597656 -2.351562 6.519531 -2.015625 7.6875 -2.015625 C 8.832031 -2.015625 9.734375 -2.347656 10.390625 -3.015625 C 11.046875 -3.679688 11.375 -4.609375 11.375 -5.796875 L 11.375 -14 Z M 13.734375 -14 "/></g></g></g><g fill="#c1c8d1" fill-opacity="1"><g transform="translate(275.603701, 209.880104)"><g><path d="M 11.40625 -11.875 L 6.953125 -11.875 L 6.953125 0 L 4.59375 0 L 4.59375 -11.875 L 0.1875 -11.875 L 0.1875 -14 L 11.40625 -14 Z M 11.40625 -11.875 "/></g></g></g><g fill="#c1c8d1" fill-opacity="1"><g transform="translate(292.059102, 209.880104)"><g><path d="M 4.203125 0 L 1.84375 0 L 1.84375 -14 L 4.203125 -14 Z M 4.203125 0 "/></g></g></g><g fill="#c1c8d1" fill-opacity="1"><g transform="translate(302.976685, 209.880104)"><g><path d="M 2.8125 -12.03125 C 4.238281 -13.382812 6 -14.0625 8.09375 -14.0625 C 10.1875 -14.0625 11.945312 -13.382812 13.375 -12.03125 C 14.800781 -10.675781 15.515625 -9 15.515625 -7 C 15.515625 -5 14.800781 -3.316406 13.375 -1.953125 C 11.945312 -0.585938 10.1875 0.09375 8.09375 0.09375 C 6 0.09375 4.238281 -0.585938 2.8125 -1.953125 C 1.394531 -3.316406 0.6875 -5 0.6875 -7 C 0.6875 -9 1.394531 -10.675781 2.8125 -12.03125 Z M 8.125 -11.9375 C 6.738281 -11.9375 5.550781 -11.457031 4.5625 -10.5 C 3.570312 -9.550781 3.078125 -8.382812 3.078125 -7 C 3.078125 -5.613281 3.570312 -4.4375 4.5625 -3.46875 C 5.5625 -2.5 6.75 -2.015625 8.125 -2.015625 C 9.5 -2.015625 10.671875 -2.5 11.640625 -3.46875 C 12.609375 -4.4375 13.09375 -5.613281 13.09375 -7 C 13.09375 -8.382812 12.609375 -9.550781 11.640625 -10.5 C 10.671875 -11.457031 9.5 -11.9375 8.125 -11.9375 Z M 8.125 -11.9375 "/></g></g></g><g fill="#c1c8d1" fill-opacity="1"><g transform="translate(324.050258, 209.880104)"><g><path d="M 13.984375 0 L 11.65625 0 L 4.203125 -10.046875 L 4.203125 0 L 1.84375 0 L 1.84375 -14 L 4.15625 -14 L 11.65625 -3.9375 L 11.65625 -14 L 13.984375 -14 Z M 13.984375 0 "/></g></g></g><g fill="#c1c8d1" fill-opacity="1"><g transform="translate(344.763982, 209.880104)"><g><path d="M 6.4375 -14.09375 C 8.25 -14.09375 9.882812 -13.613281 11.34375 -12.65625 L 10.359375 -10.578125 C 8.929688 -11.441406 7.566406 -11.875 6.265625 -11.875 C 5.554688 -11.875 5 -11.75 4.59375 -11.5 C 4.1875 -11.25 3.984375 -10.890625 3.984375 -10.421875 C 3.984375 -9.953125 4.164062 -9.550781 4.53125 -9.21875 C 4.90625 -8.894531 5.375 -8.65625 5.9375 -8.5 C 6.5 -8.351562 7.101562 -8.160156 7.75 -7.921875 C 8.40625 -7.691406 9.015625 -7.445312 9.578125 -7.1875 C 10.140625 -6.925781 10.601562 -6.519531 10.96875 -5.96875 C 11.332031 -5.414062 11.515625 -4.742188 11.515625 -3.953125 C 11.515625 -2.734375 11.023438 -1.753906 10.046875 -1.015625 C 9.066406 -0.285156 7.796875 0.078125 6.234375 0.078125 C 5.171875 0.078125 4.140625 -0.117188 3.140625 -0.515625 C 2.140625 -0.921875 1.265625 -1.460938 0.515625 -2.140625 L 1.546875 -4.1875 C 2.242188 -3.53125 3.015625 -3.023438 3.859375 -2.671875 C 4.710938 -2.316406 5.519531 -2.140625 6.28125 -2.140625 C 7.101562 -2.140625 7.742188 -2.289062 8.203125 -2.59375 C 8.671875 -2.894531 8.90625 -3.3125 8.90625 -3.84375 C 8.90625 -4.320312 8.71875 -4.722656 8.34375 -5.046875 C 7.96875 -5.378906 7.5 -5.617188 6.9375 -5.765625 C 6.375 -5.921875 5.765625 -6.109375 5.109375 -6.328125 C 4.460938 -6.546875 3.859375 -6.78125 3.296875 -7.03125 C 2.734375 -7.28125 2.265625 -7.675781 1.890625 -8.21875 C 1.523438 -8.769531 1.34375 -9.429688 1.34375 -10.203125 C 1.34375 -11.390625 1.804688 -12.332031 2.734375 -13.03125 C 3.671875 -13.738281 4.90625 -14.09375 6.4375 -14.09375 Z M 6.4375 -14.09375 "/></g></g></g></svg>