<svg xmlns="http://www.w3.org/2000/svg" xmlns:xlink="http://www.w3.org/1999/xlink" class="w-full h-full" zoomAndPan="magnify" viewBox="0 0 375 215.999996"  preserveAspectRatio="xMidYMid meet" version="1.0"><defs><g/></defs><g fill="#04153b" fill-opacity="1"><g transform="translate(13.064766, 140.748488)"><g><path d="M 35.4375 0.800781 C 55.515625 0.800781 66.875 -10.558594 66.875 -28.078125 L 66.875 -30.316406 C 66.875 -47.835938 55.515625 -59.195312 35.4375 -59.195312 C 15.359375 -59.195312 4 -47.835938 4 -30.316406 L 4 -28.078125 C 4 -10.558594 15.359375 0.800781 35.4375 0.800781 Z M 35.4375 -5.757812 C 19.917969 -5.757812 11.597656 -14.078125 11.597656 -28.160156 L 11.597656 -30.238281 C 11.597656 -44.316406 19.917969 -52.636719 35.4375 -52.636719 C 51.035156 -52.636719 59.277344 -44.398438 59.277344 -30.238281 L 59.277344 -28.160156 C 59.277344 -14.078125 50.957031 -5.757812 35.4375 -5.757812 Z M 35.4375 -5.757812 "/></g></g></g><g fill="#04153b" fill-opacity="1"><g transform="translate(85.857889, 140.748488)"><g><path d="M 42.71875 -23.359375 C 42.71875 -11.277344 36.878906 -5.519531 26.636719 -5.519531 C 16.878906 -5.519531 12.800781 -9.519531 12.800781 -20.078125 L 12.800781 -42.398438 L 5.679688 -42.398438 L 5.679688 -19.039062 C 5.679688 -6.078125 12.558594 0.800781 24.957031 0.800781 C 34.316406 0.800781 40.957031 -3.519531 43.675781 -12.078125 L 45.039062 0 L 49.835938 0 L 49.835938 -42.398438 L 42.71875 -42.398438 Z M 42.71875 -23.359375 "/></g></g></g><g fill="#04153b" fill-opacity="1"><g transform="translate(144.25241, 140.748488)"><g><path d="M 37.277344 -42.398438 L 19.839844 -42.398438 L 19.839844 -55.277344 L 15.039062 -55.277344 L 12.878906 -42.398438 L 2.558594 -42.398438 L 2.558594 -36.238281 L 12.71875 -36.238281 L 12.71875 -14.238281 C 12.71875 -4.320312 17.757812 0.800781 28.796875 0.800781 C 32.71875 0.800781 35.199219 0.480469 37.359375 0 L 37.359375 -6.238281 C 34.71875 -5.757812 32.398438 -5.519531 28.796875 -5.519531 C 22.398438 -5.519531 19.839844 -8.078125 19.839844 -14.960938 L 19.839844 -36.238281 L 37.277344 -36.238281 Z M 37.277344 -42.398438 "/></g></g></g><g fill="#04153b" fill-opacity="1"><g transform="translate(187.368413, 140.748488)"><g><path d="M 14 -58.394531 L 6.800781 -58.394531 L 6.800781 0 L 14 0 Z M 14 -58.394531 "/></g></g></g><g fill="#04153b" fill-opacity="1"><g transform="translate(210.086398, 140.748488)"><g><path d="M 15.359375 -54.398438 C 15.359375 -51.4375 13.359375 -49.4375 10.238281 -49.4375 C 7.121094 -49.4375 5.121094 -51.4375 5.121094 -54.398438 C 5.121094 -57.195312 7.121094 -59.195312 10.238281 -59.195312 C 13.359375 -59.195312 15.359375 -57.195312 15.359375 -54.398438 Z M 13.839844 0 L 13.839844 -42.398438 L 6.640625 -42.398438 L 6.640625 0 Z M 13.839844 0 "/></g></g></g><g fill="#04153b" fill-opacity="1"><g transform="translate(232.484407, 140.748488)"><g><path d="M 31.757812 -43.199219 C 22.238281 -43.199219 15.519531 -38.878906 12.878906 -30.316406 L 11.359375 -42.398438 L 6.640625 -42.398438 L 6.640625 0 L 13.839844 0 L 13.839844 -19.039062 C 13.839844 -31.117188 19.597656 -36.878906 30.078125 -36.878906 C 39.917969 -36.878906 43.996094 -32.878906 43.996094 -22.320312 L 43.996094 0 L 51.117188 0 L 51.117188 -23.359375 C 51.117188 -36.316406 44.238281 -43.199219 31.757812 -43.199219 Z M 31.757812 -43.199219 "/></g></g></g><g fill="#04153b" fill-opacity="1"><g transform="translate(291.198889, 140.748488)"><g><path d="M 51.675781 -23.359375 C 51.675781 -34.957031 43.4375 -43.199219 28.238281 -43.199219 C 12.558594 -43.199219 3.757812 -34.398438 3.757812 -21.917969 L 3.757812 -20.480469 C 3.757812 -8 12.558594 0.800781 27.917969 0.800781 C 42.476562 0.800781 49.117188 -6.398438 50.71875 -13.519531 L 43.355469 -13.519531 C 41.757812 -9.597656 38.078125 -5.519531 28 -5.519531 C 17.519531 -5.519531 11.917969 -10.238281 11.121094 -19.117188 L 51.355469 -19.117188 C 51.597656 -20.480469 51.675781 -21.679688 51.675781 -23.359375 Z M 28.238281 -36.957031 C 38.476562 -36.957031 43.835938 -32.316406 44.476562 -24.636719 L 11.199219 -24.636719 C 12.320312 -32.558594 17.917969 -36.957031 28.238281 -36.957031 Z M 28.238281 -36.957031 "/></g></g></g><g fill="#04153b" fill-opacity="1"><g transform="translate(128.916048, 175.750405)"><g><path d="M 0.558594 -3.402344 C 0.601562 -2.949219 0.738281 -1.386719 2.152344 -0.464844 C 3.265625 0.257812 4.710938 0.269531 5.058594 0.269531 C 6.863281 0.269531 7.828125 -0.300781 8.414062 -0.871094 C 9.242188 -1.6875 9.300781 -2.632812 9.300781 -3.054688 C 9.300781 -5.390625 7.089844 -5.871094 6.59375 -5.992188 L 4.652344 -6.457031 C 3.445312 -6.742188 2.527344 -7.105469 2.527344 -8.128906 C 2.527344 -9.4375 3.945312 -9.800781 4.953125 -9.800781 C 7.359375 -9.800781 7.691406 -8.144531 7.691406 -7.542969 L 9.121094 -7.632812 C 8.941406 -8.625 8.699219 -9.394531 7.765625 -10.101562 C 6.910156 -10.761719 5.886719 -10.898438 4.832031 -10.898438 C 4.320312 -10.898438 3.101562 -10.867188 2.078125 -10.023438 C 1.445312 -9.5 1.070312 -8.789062 1.070312 -7.949219 C 1.070312 -6.171875 2.410156 -5.402344 4.800781 -4.921875 L 5.765625 -4.726562 C 6.910156 -4.5 7.78125 -4.15625 7.78125 -2.964844 C 7.78125 -1.1875 6.019531 -0.84375 5.132812 -0.84375 C 2.183594 -0.84375 2.09375 -3.175781 2.078125 -3.597656 Z M 0.558594 -3.402344 "/></g></g></g><g fill="#04153b" fill-opacity="1"><g transform="translate(142.039494, 175.750405)"><g><path d="M 11.46875 -5.402344 C 11.46875 -8.625 9.363281 -10.898438 6.125 -10.898438 C 3.402344 -10.898438 0.769531 -9.210938 0.769531 -5.328125 C 0.769531 -1.519531 3.328125 0.269531 6.082031 0.269531 C 10.054688 0.269531 11.46875 -2.816406 11.46875 -5.402344 Z M 2.304688 -5.3125 C 2.304688 -7.527344 3.3125 -9.753906 6.125 -9.753906 C 8.988281 -9.753906 9.933594 -7.511719 9.933594 -5.402344 C 9.933594 -2.257812 8.265625 -0.84375 6.15625 -0.84375 C 3.761719 -0.84375 2.304688 -2.574219 2.304688 -5.3125 Z M 2.304688 -5.3125 "/></g></g></g><g fill="#04153b" fill-opacity="1"><g transform="translate(157.344733, 175.750405)"><g><path d="M 7.585938 0 L 7.585938 -1.265625 L 2.4375 -1.265625 L 2.4375 -10.628906 L 1.023438 -10.628906 L 1.023438 0 Z M 7.585938 0 "/></g></g></g><g fill="#04153b" fill-opacity="1"><g transform="translate(168.271336, 175.750405)"><g><path d="M 1.144531 -10.628906 L 1.144531 -3.355469 C 1.144531 -1.371094 2.4375 0.269531 5.085938 0.269531 C 7.917969 0.269531 9.195312 -1.582031 9.195312 -3.507812 L 9.195312 -10.628906 L 7.765625 -10.628906 L 7.765625 -3.792969 C 7.765625 -2.289062 7.105469 -0.933594 5.101562 -0.933594 C 3.222656 -0.933594 2.558594 -2.152344 2.558594 -3.597656 L 2.558594 -10.628906 Z M 1.144531 -10.628906 "/></g></g></g><g fill="#04153b" fill-opacity="1"><g transform="translate(181.710765, 175.750405)"><g><path d="M 7.949219 -9.394531 L 7.949219 -10.628906 L 0.164062 -10.628906 L 0.164062 -9.394531 L 3.355469 -9.394531 L 3.355469 0 L 4.773438 0 L 4.773438 -9.394531 Z M 7.949219 -9.394531 "/></g></g></g><g fill="#04153b" fill-opacity="1"><g transform="translate(192.953354, 175.750405)"><g><path d="M 2.4375 0 L 2.4375 -10.628906 L 1.007812 -10.628906 L 1.007812 0 Z M 2.4375 0 "/></g></g></g><g fill="#04153b" fill-opacity="1"><g transform="translate(199.486288, 175.750405)"><g><path d="M 11.46875 -5.402344 C 11.46875 -8.625 9.363281 -10.898438 6.125 -10.898438 C 3.402344 -10.898438 0.769531 -9.210938 0.769531 -5.328125 C 0.769531 -1.519531 3.328125 0.269531 6.082031 0.269531 C 10.054688 0.269531 11.46875 -2.816406 11.46875 -5.402344 Z M 2.304688 -5.3125 C 2.304688 -7.527344 3.3125 -9.753906 6.125 -9.753906 C 8.988281 -9.753906 9.933594 -7.511719 9.933594 -5.402344 C 9.933594 -2.257812 8.265625 -0.84375 6.15625 -0.84375 C 3.761719 -0.84375 2.304688 -2.574219 2.304688 -5.3125 Z M 2.304688 -5.3125 "/></g></g></g><g fill="#04153b" fill-opacity="1"><g transform="translate(214.791523, 175.750405)"><g><path d="M 9.484375 0 L 9.484375 -10.628906 L 8.203125 -10.628906 C 8.203125 -10.296875 8.265625 -2.105469 8.265625 -2.105469 L 2.515625 -10.628906 L 1.175781 -10.628906 L 1.175781 0 L 2.515625 0 C 2.515625 -0.210938 2.378906 -8.640625 2.378906 -8.640625 L 8.203125 0 Z M 9.484375 0 "/></g></g></g><g fill="#04153b" fill-opacity="1"><g transform="translate(228.531882, 175.750405)"><g><path d="M 0.558594 -3.402344 C 0.601562 -2.949219 0.738281 -1.386719 2.152344 -0.464844 C 3.265625 0.257812 4.710938 0.269531 5.058594 0.269531 C 6.863281 0.269531 7.828125 -0.300781 8.414062 -0.871094 C 9.242188 -1.6875 9.300781 -2.632812 9.300781 -3.054688 C 9.300781 -5.390625 7.089844 -5.871094 6.59375 -5.992188 L 4.652344 -6.457031 C 3.445312 -6.742188 2.527344 -7.105469 2.527344 -8.128906 C 2.527344 -9.4375 3.945312 -9.800781 4.953125 -9.800781 C 7.359375 -9.800781 7.691406 -8.144531 7.691406 -7.542969 L 9.121094 -7.632812 C 8.941406 -8.625 8.699219 -9.394531 7.765625 -10.101562 C 6.910156 -10.761719 5.886719 -10.898438 4.832031 -10.898438 C 4.320312 -10.898438 3.101562 -10.867188 2.078125 -10.023438 C 1.445312 -9.5 1.070312 -8.789062 1.070312 -7.949219 C 1.070312 -6.171875 2.410156 -5.402344 4.800781 -4.921875 L 5.765625 -4.726562 C 6.910156 -4.5 7.78125 -4.15625 7.78125 -2.964844 C 7.78125 -1.1875 6.019531 -0.84375 5.132812 -0.84375 C 2.183594 -0.84375 2.09375 -3.175781 2.078125 -3.597656 Z M 0.558594 -3.402344 "/></g></g></g><path stroke-linecap="butt" transform="matrix(0.750679, 0, 0, 0.75, 47.74443, 28.644652)" fill="none" stroke-linejoin="miter" d="M 0.00221678 0.99984 L 362.679309 0.99984 " stroke="#04153b" stroke-width="2" stroke-opacity="1" stroke-miterlimit="4"/><path stroke-linecap="butt" transform="matrix(0.000000000000000046, -0.751762, 0.75, 0.000000000000000046, 318.325854, 60.005387)" fill="none" stroke-linejoin="miter" d="M 0.00196928 0.99782 L 39.908222 0.99782 " stroke="#04153b" stroke-width="2" stroke-opacity="1" stroke-miterlimit="4"/><path stroke-linecap="butt" transform="matrix(0.000000000000000046, -0.751762, 0.75, 0.000000000000000046, 47.672326, 60.005387)" fill="none" stroke-linejoin="miter" d="M 0.00196928 0.999398 L 39.908222 0.999398 " stroke="#04153b" stroke-width="2" stroke-opacity="1" stroke-miterlimit="4"/><path stroke-linecap="butt" transform="matrix(-0.750679, -0.000000000000000092, 0.000000000000000092, -0.75, 319.748334, 189.852336)" fill="none" stroke-linejoin="miter" d="M -0.00221988 1.001032 L 362.680076 1.001032 " stroke="#04153b" stroke-width="2" stroke-opacity="1" stroke-miterlimit="4"/><path stroke-linecap="butt" transform="matrix(0.000000000000000046, 0.751762, -0.75, 0.000000000000000046, 49.172322, 158.491586)" fill="none" stroke-linejoin="miter" d="M 0.000799897 1.000595 L 39.907053 1.000595 " stroke="#04153b" stroke-width="2" stroke-opacity="1" stroke-miterlimit="4"/><path stroke-linecap="butt" transform="matrix(0.000000000000000046, 0.751762, -0.75, 0.000000000000000046, 319.825854, 158.491586)" fill="none" stroke-linejoin="miter" d="M 0.000799897 1.00218 L 39.907053 1.00218 " stroke="#04153b" stroke-width="2" stroke-opacity="1" stroke-miterlimit="4"/></svg>